<svg width="46" height="47" viewBox="0 0 46 47" fill="none" xmlns="http://www.w3.org/2000/svg">
<path d="M23 46.3799C10.3186 46.3799 0 36.0676 0 23.3799C0 10.6922 10.3186 0.379883 23 0.379883C35.6814 0.379883 46 10.6985 46 23.3799C46 36.0612 35.6814 46.3799 23 46.3799ZM23 2.74893C11.6235 2.74893 2.36904 12.0034 2.36904 23.3799C2.36904 34.7564 11.6235 44.0108 23 44.0108C34.3765 44.0108 43.631 34.7564 43.631 23.3799C43.631 12.0034 34.3765 2.74893 23 2.74893Z" fill="white"/>
<path d="M23.4496 9.69141C25.673 9.69141 27.586 10.2362 29.0745 11.294C30.1704 12.0605 31.0192 13.0803 31.6273 14.3218C32.0517 15.1833 31.5703 16.2221 30.6518 16.4818H30.6201C29.917 16.6909 29.1506 16.3805 28.8275 15.728C28.4411 14.9489 27.928 14.3281 27.2819 13.8721C26.3064 13.169 25.0142 12.8206 23.456 12.8206H22.9872C20.9159 12.8206 19.2373 13.2513 18.1858 14.0684C17.2483 14.8096 16.7796 15.8674 16.7796 17.3116C16.7796 18.7559 17.2483 19.8074 18.1858 20.5548C19.2373 21.3719 20.9159 21.8027 22.9872 21.8027C25.8377 21.8027 28.0991 22.4298 29.7396 23.7156C31.4182 25.0459 32.3557 26.9968 32.3557 29.4166C32.3557 31.8363 31.4182 33.7872 29.7396 35.1175C28.0991 36.4033 25.8377 37.0304 22.9872 37.0304H22.5565C20.3331 37.0304 18.4202 36.4857 16.8936 35.3898C15.8231 34.6487 14.9806 33.6352 14.3789 32.3937C13.9608 31.5322 14.4359 30.4997 15.3544 30.2337C16.0701 30.0246 16.8303 30.3667 17.1723 31.0318C17.5587 31.7919 18.0781 32.4 18.7369 32.8498C19.7124 33.5529 20.9983 33.9076 22.5628 33.9076H22.9936C25.1029 33.9076 26.7815 33.4769 27.795 32.6597C28.7705 31.9186 29.2392 30.8671 29.2392 29.4166C29.2392 27.966 28.7705 26.9145 27.795 26.1734C26.7815 25.3562 25.1029 24.9255 22.9936 24.9255C20.1811 24.9255 17.9198 24.2984 16.2792 23.0125C14.5626 21.6823 13.6631 19.7313 13.6631 17.3116C13.6631 14.8919 14.5626 12.9409 16.2792 11.5727C17.9198 10.3248 20.1811 9.69774 22.9936 9.69774H23.4623L23.4496 9.69141Z" fill="white"/>
<path d="M22.8037 5.68164H22.525C21.7728 5.68164 21.1631 6.29138 21.1631 7.04352V11.3445C21.1631 12.0967 21.7728 12.7064 22.525 12.7064H22.8037C23.5558 12.7064 24.1656 12.0967 24.1656 11.3445V7.04352C24.1656 6.29138 23.5558 5.68164 22.8037 5.68164Z" fill="white"/>
<path d="M22.8037 34.0535H22.525C21.7728 34.0535 21.1631 34.6632 21.1631 35.4154V39.7164C21.1631 40.4685 21.7728 41.0783 22.525 41.0783H22.8037C23.5558 41.0783 24.1656 40.4685 24.1656 39.7164V35.4154C24.1656 34.6632 23.5558 34.0535 22.8037 34.0535Z" fill="white"/>
</svg>
